:SAMPLES-PER-SECOND 30
:FULLY-SPECIFIED
:DEGREES
397
root  -32.0035 34.5291 5.50636 -168.029 43.6939 -173.779
RightUpLeg  -7.0199 -22.3694 10.7881
RightLeg  1.75283 -5.45714 0.184896
RightFoot  3.15877 0.0173088 -0.110853
RightToes  -11.9691 -0.0464021 -0.109597
Spine  -0.971609 -0.369734 2.23409
Spine1  -1.87171 -0.617917 5.32468
HEad  -62.1875 0.542441 0.615824
LeftShoulder1  -1.94126e-019 -3.10601e-018 -2.51263e-017
LeftArm  14.222 26.3381 -74.9273
LeftForeArm  133.121 -71.6035 -145.308
LeftHand  0.137587 0.522023 -3.38581
RightShoulder  -4.96962e-017 0 -2.36833e-017
RightArm  19.6748 -20.636 63.0538
RightForeArm  153.414 78.3351 129.857
RightHand  -0.137159 2.51981 -2.21718
LeftUpLeg  -13.7428 13.6694 10.7957
LeftLeg  35.8387 12.2494 7.59213
LeftFoot  -1.49087 -0.00469353 -0.199203
LeftToes  -25.7572 1.49739e-006 1.00523e-007
398
root  -31.8518 34.5455 5.3659 -168.147 44.1456 -174.17
RightUpLeg  -6.78805 -22.3553 10.4062
RightLeg  1.71807 -5.08824 0.175503
RightFoot  2.96343 0.0138542 -0.0756589
RightToes  -12.0619 -0.0462913 -0.110631
Spine  -1.01362 -0.291068 2.11893
Spine1  -1.95363 -0.464682 5.09683
HEad  -61.7053 0.627839 0.35371
LeftShoulder1  -1.94126e-019 -3.10601e-018 -2.51263e-017
LeftArm  14.2814 26.9972 -74.2595
LeftForeArm  133.968 -71.5656 -145.508
LeftHand  0.119887 0.469241 -2.92001
RightShoulder  -4.96962e-017 0 -2.36833e-017
RightArm  20.2757 -20.3677 63.3649
RightForeArm  153.593 78.3206 129.968
RightHand  -0.128462 2.57122 -2.07985
LeftUpLeg  -13.9369 12.837 11.4646
LeftLeg  32.0257 12.9732 6.90012
LeftFoot  -0.175009 -3.87605e-005 0.135981
LeftToes  -26.1937 1.49739e-006 1.00523e-007
399
root  -31.7296 34.5617 5.21613 -168.191 44.5525 -174.601
RightUpLeg  -6.66983 -22.2312 9.99965
RightLeg  1.6301 -4.86127 0.175135
RightFoot  2.81252 0.0113585 -0.0532762
RightToes  -12.2901 -0.0464068 -0.112132
Spine  -1.07789 -0.254216 2.0034
Spine1  -2.08407 -0.396815 4.87367
HEad  -61.4881 0.88014 -0.0162383
LeftShoulder1  -1.94126e-019 -3.10601e-018 -2.51263e-017
LeftArm  14.334 27.7349 -73.4873
LeftForeArm  134.066 -71.6163 -145.426
LeftHand  0.114985 0.548357 -2.86043
RightShoulder  -4.96962e-017 0 -2.36833e-017
RightArm  20.9765 -20 63.6894
RightForeArm  154.229 78.2365 130.503
RightHand  -0.118032 2.68887 -1.90843
LeftUpLeg  -14.0323 11.517 12.1739
LeftLeg  27.0911 12.9545 5.53945
LeftFoot  2.12846 -0.0102508 0.713381
LeftToes  -27.3036 1.49739e-006 1.00523e-007
400
root  -31.6366 34.583 5.05164 -168.172 44.8799 -175.027
RightUpLeg  -6.62918 -22.1316 9.58048
RightLeg  1.53206 -4.62372 0.174486
RightFoot  2.76604 0.00958841 -0.0402796
RightToes  -12.7231 -0.0467815 -0.115898
Spine  -1.14517 -0.259672 1.90105
Spine1  -2.22493 -0.414487 4.67307
HEad  -61.3963 1.22199 -0.385269
LeftShoulder1  -1.94126e-019 -3.10601e-018 -2.51263e-017
LeftArm  14.2213 28.5302 -72.799
LeftForeArm  133.444 -71.7807 -145.011
LeftHand  0.132155 0.473873 -3.21609
RightShoulder  -4.96962e-017 0 -2.36833e-017
RightArm  21.8886 -19.5013 63.9095
RightForeArm  154.927 78.2026 130.827
RightHand  -0.116827 2.79359 -1.87475
LeftUpLeg  -14.1224 9.6649 12.9719
LeftLeg  21.7654 12.4354 4.01905
LeftFoot  3.99872 -0.0329075 1.10419
LeftToes  -28.9061 1.49739e-006 1.00523e-007
401
root  -31.5713 34.6147 4.8787 -168.268 45.2555 -175.742
RightUpLeg  -6.71274 -21.9206 8.95851
RightLeg  1.43541 -4.4757 0.176442
RightFoot  2.71361 0.00813868 -0.0307915
RightToes  -13.1429 -0.0474484 -0.119308
Spine  -1.22054 -0.257437 1.72155
Spine1  -2.38193 -0.417166 4.31491
HEad  -61.5363 1.50767 -0.727563
LeftShoulder1  -1.94126e-019 -3.10601e-018 -2.51263e-017
LeftArm  14.1399 29.2895 -72.1356
LeftForeArm  132.756 -71.9481 -144.572
LeftHand  0.140297 0.508847 -3.43985
RightShoulder  -4.96962e-017 0 -2.36833e-017
RightArm  22.6856 -19.0415 64.3796
RightForeArm  155.245 78.3411 130.296
RightHand  -0.109423 2.81724 -1.76631
LeftUpLeg  -14.3552 7.33285 13.6363
LeftLeg  16.558 11.3837 2.58107
LeftFoot  6.96606 -0.0881903 1.61042
LeftToes  -31.4346 1.49739e-006 1.00523e-007
402
root  -31.5311 34.6451 4.69273 -168.278 45.5346 -176.287
RightUpLeg  -6.76245 -21.6149 8.4163
RightLeg  1.30313 -4.521 0.188636
RightFoot  2.73194 0.0077053 -0.0346689
RightToes  -13.5383 -0.0484405 -0.122949
Spine  -1.27125 -0.253488 1.57598
Spine1  -2.48857 -0.413264 4.02131
HEad  -61.7738 1.72518 -0.942858
LeftShoulder1  -1.94126e-019 -3.10601e-018 -2.51263e-017
LeftArm  14.2879 29.7382 -71.6107
LeftForeArm  132.484 -72.1076 -144.205
LeftHand  0.150372 0.387464 -3.57517
RightShoulder  -4.96962e-017 0 -2.36833e-017
RightArm  23.2463 -18.6842 64.7767
RightForeArm  154.968 78.5754 129.152
RightHand  -0.0787606 2.91208 -1.32406
LeftUpLeg  -14.7215 4.4498 14.4521
LeftLeg  12.0042 10.2621 1.49114
LeftFoot  9.92749 -0.158056 1.98124
LeftToes  -32.6165 1.49739e-006 1.00523e-007
403
root  -31.5141 34.6718 4.49301 -168.282 45.7578 -176.819
RightUpLeg  -6.85905 -21.3725 7.85527
RightLeg  1.21932 -4.56732 0.19723
RightFoot  2.76792 0.00743203 -0.0395879
RightToes  -14.0839 -0.0509911 -0.127638
Spine  -1.30569 -0.207157 1.43397
Spine1  -2.56008 -0.322312 3.72806
HEad  -62.074 1.7174 -1.17127
LeftShoulder1  -1.94126e-019 -3.10601e-018 -2.51263e-017
LeftArm  14.5909 29.8995 -71.2606
LeftForeArm  132.363 -72.2052 -143.985
LeftHand  0.149556 0.436765 -3.55915
RightShoulder  -4.96962e-017 0 -2.36833e-017
RightArm  23.5529 -18.4727 65.033
RightForeArm  153.575 78.8142 127.63
RightHand  -0.0552389 2.81906 -0.999114
LeftUpLeg  -15.5777 1.64881 15.1929
LeftLeg  8.86258 9.76175 0.879502
LeftFoot  10.3151 -0.160971 1.94481
LeftToes  -32.3061 1.49739e-006 1.00523e-007
404
root  -31.5184 34.6889 4.26657 -168.237 45.7455 -177.159
RightUpLeg  -6.85809 -21.3516 7.36534
RightLeg  1.13674 -4.61517 0.205929
RightFoot  2.81514 0.00731142 -0.0453545
RightToes  -14.7852 -0.054137 -0.133629
Spine  -1.28989 -0.178888 1.35032
Spine1  -2.53205 -0.267999 3.55018
HEad  -62.4879 1.54866 -1.24777
LeftShoulder1  -1.94126e-019 -3.10601e-018 -2.51263e-017
LeftArm  14.9726 29.7495 -71.1959
LeftForeArm  132.439 -72.2777 -143.847
LeftHand  0.144666 0.446804 -3.49246
RightShoulder  -4.96962e-017 0 -2.36833e-017
RightArm  23.5686 -18.4105 65.0468
RightForeArm  152.307 78.9476 126.609
RightHand  -0.040154 2.67585 -0.788463
LeftUpLeg  -16.9185 -1.12311 15.8641
LeftLeg  7.21537 10.1599 0.623069
LeftFoot  9.24783 -0.134499 1.8244
LeftToes  -31.3761 1.49739e-006 1.00523e-007
405
root  -31.5246 34.6926 4.00162 -168.16 45.7023 -177.259
RightUpLeg  -6.64166 -21.1645 6.91077
RightLeg  1.09364 -4.795 0.217539
RightFoot  2.7913 0.00707641 -0.0480634
RightToes  -15.3796 -0.0575883 -0.138675
Spine  -1.20293 -0.12383 1.2888
Spine1  -2.35836 -0.161435 3.4181
HEad  -62.9691 1.30036 -1.06848
LeftShoulder1  -1.94126e-019 -3.10601e-018 -2.51263e-017
LeftArm  15.361 29.2785 -71.2624
LeftForeArm  132.897 -72.3078 -143.857
LeftHand  0.140331 0.475881 -3.41279
RightShoulder  -4.96962e-017 0 -2.36833e-017
RightArm  23.3598 -18.3888 64.9205
RightForeArm  151.374 79.034 125.897
RightHand  -0.0422223 2.66736 -0.818462
LeftUpLeg  -18.5327 -2.14093 16.0527
LeftLeg  6.92754 10.1877 0.573716
LeftFoot  8.82829 -0.122901 1.75354
LeftToes  -31.595 1.49739e-006 1.00523e-007
406
root  -31.5377 34.6794 3.69135 -167.975 45.7209 -177.109
RightUpLeg  -6.40119 -21.2624 6.53767
RightLeg  1.15829 -4.70531 0.208179
RightFoot  2.78538 0.0068588 -0.0495102
RightToes  -16.2176 -0.0613923 -0.145737
Spine  -1.11648 -0.0300078 1.27629
Spine1  -2.1833 0.0237241 3.38001
HEad  -63.2634 0.980165 -0.739568
LeftShoulder1  -1.94126e-019 -3.10601e-018 -2.51263e-017
LeftArm  15.6261 28.7401 -71.5285
LeftForeArm  133.119 -72.3323 -143.841
LeftHand  0.139234 0.417393 -3.42711
RightShoulder  -4.96962e-017 0 -2.36833e-017
RightArm  23.1011 -18.4064 64.6238
RightForeArm  151.14 79.007 125.978
RightHand  -0.0432665 2.57938 -0.855299
LeftUpLeg  -20.2006 -1.98675 15.7438
LeftLeg  7.60687 10.1256 0.690038
LeftFoot  8.56451 -0.115073 1.69824
LeftToes  -32.9243 1.49739e-006 1.00523e-007
407
root  -31.5405 34.6553 3.33157 -167.714 45.9316 -176.751
RightUpLeg  -6.01673 -21.1138 6.17513
RightLeg  1.24565 -4.64998 0.198662
RightFoot  2.77954 0.00670213 -0.0502295
RightToes  -17.1055 -0.0659174 -0.153151
Spine  -1.06048 0.0895349 1.30173
Spine1  -2.06679 0.260323 3.42239
HEad  -63.2021 0.689157 -0.37707
LeftShoulder1  -1.94126e-019 -3.10601e-018 -2.51263e-017
LeftArm  15.7916 28.3494 -71.896
LeftForeArm  133.533 -72.3355 -143.899
LeftHand  0.136361 0.43424 -3.24359
RightShoulder  -4.96962e-017 0 -2.36833e-017
RightArm  23.0324 -18.3627 64.2331
RightForeArm  150.941 78.9388 126.283
RightHand  -0.0444988 2.50978 -0.897811
LeftUpLeg  -21.6114 -1.39323 15.0923
LeftLeg  8.78402 9.97093 0.884486
LeftFoot  7.87008 -0.09589 1.55548
LeftToes  -33.0511 1.49739e-006 1.00523e-007
408
root  -31.5297 34.6255 2.91955 -167.373 46.3043 -176.265
RightUpLeg  -5.5693 -20.7459 5.7991
RightLeg  1.37454 -4.66177 0.188703
RightFoot  2.80198 0.00665 -0.050756
RightToes  -18.1578 -0.0714293 -0.161848
Spine  -1.06638 0.194317 1.34354
Spine1  -2.07327 0.466449 3.50402
HEad  -62.6839 0.514517 -0.00837558
LeftShoulder1  -1.94126e-019 -3.10601e-018 -2.51263e-017
LeftArm  15.6748 28.296 -72.2856
LeftForeArm  134.187 -72.2916 -144.095
LeftHand  0.135405 0.312349 -3.18598
RightShoulder  -4.96962e-017 0 -2.36833e-017
RightArm  23.1906 -18.254 63.8632
RightForeArm  151.269 78.8757 126.7
RightHand  -0.0448015 2.4662 -0.814385
LeftUpLeg  -22.6177 -1.00023 14.2425
LeftLeg  9.93414 9.53863 1.03872
LeftFoot  7.51165 -0.0879534 1.43627
LeftToes  -32.9016 1.49739e-006 1.00523e-007
